<svg width="512" height="512" viewBox="0 0 512 512" fill="none" xmlns="http://www.w3.org/2000/svg" role="img" aria-labelledby="title desc">
  <title id="title">Shubha Banerjee logo</title>
  <desc id="desc">A premium geometric SB monogram with backend infrastructure traces.</desc>
  <rect width="512" height="512" rx="92" fill="#F5EFE2"/>
  <path d="M80 112H432" stroke="#20221F" stroke-width="10" stroke-linecap="round" opacity=".18"/>
  <path d="M80 400H432" stroke="#20221F" stroke-width="10" stroke-linecap="round" opacity=".18"/>
  <path d="M112 80V432" stroke="#20221F" stroke-width="10" stroke-linecap="round" opacity=".18"/>
  <path d="M400 80V432" stroke="#20221F" stroke-width="10" stroke-linecap="round" opacity=".18"/>

  <path d="M150 148H285C324.765 148 354 171.071 354 204C354 236.929 324.765 260 285 260H150V148Z" fill="#F5EFE2" stroke="#20221F" stroke-width="24" stroke-linejoin="round"/>
  <path d="M150 252H304C343.765 252 373 275.071 373 308C373 340.929 343.765 364 304 364H150V252Z" fill="#F5EFE2" stroke="#20221F" stroke-width="24" stroke-linejoin="round"/>

  <path d="M150 148V364" stroke="#C94E2C" stroke-width="34" stroke-linecap="square"/>
  <path d="M210 204H286" stroke="#C94E2C" stroke-width="20" stroke-linecap="square"/>
  <path d="M210 308H304" stroke="#C94E2C" stroke-width="20" stroke-linecap="square"/>
  <path d="M210 256H332" stroke="#20221F" stroke-width="18" stroke-linecap="square"/>

  <path d="M286 204H424" stroke="#20221F" stroke-width="12" stroke-linecap="round"/>
  <path d="M304 308H424" stroke="#20221F" stroke-width="12" stroke-linecap="round"/>
  <path d="M88 204H150" stroke="#20221F" stroke-width="12" stroke-linecap="round"/>
  <path d="M88 308H150" stroke="#20221F" stroke-width="12" stroke-linecap="round"/>

  <circle cx="424" cy="204" r="18" fill="#F5EFE2" stroke="#20221F" stroke-width="10"/>
  <circle cx="424" cy="308" r="18" fill="#C94E2C" stroke="#20221F" stroke-width="10"/>
  <circle cx="88" cy="204" r="18" fill="#C94E2C" stroke="#20221F" stroke-width="10"/>
  <circle cx="88" cy="308" r="18" fill="#F5EFE2" stroke="#20221F" stroke-width="10"/>

  <path d="M256 72V120" stroke="#C94E2C" stroke-width="14" stroke-linecap="round"/>
  <path d="M256 392V440" stroke="#C94E2C" stroke-width="14" stroke-linecap="round"/>
  <circle cx="256" cy="72" r="14" fill="#20221F"/>
  <circle cx="256" cy="440" r="14" fill="#20221F"/>
</svg>
